<svg width="192" height="64" viewBox="0 0 192 64" fill="none" xmlns="http://www.w3.org/2000/svg">
<g id="Frame" clip-path="url(#clip0_7_78)">
<path id="Vector" d="M14.2736 40.1605L20.5185 31.9654L28.7199 38.2125L32.3509 33.4421L19.3817 23.5607L9.50316 36.5295L14.2736 40.1605Z" fill="#F3BA2F"/>
<path id="Vector_2" d="M6.93706 39.8972L3.30444 44.6662L8.07345 48.2988L11.7061 43.5298L6.93706 39.8972Z" fill="#F3BA2F"/>
<path id="Vector_3" d="M15.0763 46.0956L23.2744 52.3401L29.5215 44.1387L34.2915 47.7668L34.2889 47.7702L24.4108 60.7419L11.4424 50.8663L11.4357 50.8613L15.0763 46.0956Z" fill="#F3BA2F"/>
<path id="Vector_4" d="M35.7151 36.0052L32.0825 40.7742L36.8515 44.4069L40.4841 39.6379L35.7151 36.0052Z" fill="#F3BA2F"/>
<path id="Vector_5" d="M26.1571 41.5735L21.3192 37.8858L18.5944 41.463L18.2791 41.8735L17.6341 42.7203L17.6294 42.7299L17.6361 42.735L22.4731 46.4168L26.1575 41.5764L26.1604 41.576L26.1571 41.5735Z" fill="#F3BA2F"/>
<path id="Vector_6" d="M45.7412 29.1698L54.8802 27.9337C57.1473 27.6271 58.9409 27.9766 60.2616 28.9851C61.2821 29.7651 61.8828 30.8232 62.0627 32.1536L62.0703 32.2094C62.1465 32.7732 62.1432 33.279 62.0635 33.7294C61.981 34.1802 61.8488 34.5958 61.6607 34.9741C61.4756 35.352 61.2467 35.6939 60.9741 35.9999C60.7015 36.3059 60.3999 36.574 60.0729 36.8096C61.2707 37.0872 62.2488 37.553 63.0042 38.2074C63.7595 38.8618 64.2245 39.8455 64.4021 41.1582L64.4096 41.214C64.5316 42.1156 64.4648 42.9261 64.21 43.6513C63.9548 44.3736 63.5348 45.0046 62.9465 45.5417C62.3616 46.0813 61.6287 46.5214 60.7489 46.8706C59.8691 47.2199 58.877 47.4677 57.7728 47.6171L48.4077 48.8838L45.7412 29.1698ZM55.0419 36.0278C55.9993 35.8983 56.7377 35.631 57.257 35.2258C57.7764 34.8206 57.9864 34.251 57.8875 33.5197L57.8799 33.4639C57.791 32.8061 57.4793 32.3369 56.9449 32.0563C56.4106 31.7757 55.6819 31.6949 54.7628 31.8192L50.4781 32.3987L51.0418 36.5659C51.0422 36.5688 55.0419 36.0278 55.0419 36.0278ZM57.2735 43.815C58.2308 43.6855 58.9592 43.4106 59.4556 42.9906C59.952 42.5705 60.152 41.9933 60.0527 41.2591L60.0452 41.2033C59.9562 40.5455 59.6333 40.0598 59.0733 39.7439C58.5132 39.4279 57.671 39.3474 56.5433 39.4999L51.5304 40.178L52.117 44.5155L57.2735 43.815Z" fill="white"/>
<path id="Vector_7" d="M67.9131 26.1709L72.2506 25.5842L74.9174 45.3011L70.58 45.8878L67.9131 26.1709Z" fill="white"/>
<path id="Vector_8" d="M78.823 24.6953L82.8228 24.1542L93.7036 35.0448L92.0615 22.9046L96.3432 22.3255L99.0101 42.0423L95.3216 42.5412L84.0763 31.2992L85.7716 43.833L81.4899 44.4121L78.823 24.6953Z" fill="white"/>
<path id="Vector_9" d="M109.454 20.4086L113.454 19.8676L124.591 38.5822L120.057 39.1955L117.656 35.0168L109.319 36.1445L108.114 40.811L103.691 41.4092L109.454 20.4086ZM115.587 31.3971L112.103 25.3582L110.348 32.1057L115.587 31.3971Z" fill="white"/>
<path id="Vector_10" d="M126.606 18.2322L130.605 17.6912L141.486 28.5818L139.844 16.4416L144.126 15.8625L146.793 35.5793L143.104 36.0782L131.859 24.8362L133.554 37.3699L129.273 37.9491L126.606 18.2322Z" fill="white"/>
<path id="Vector_11" d="M162.45 33.8055C161.002 34.0013 159.624 33.9185 158.314 33.5634C157.004 33.2083 155.838 32.6305 154.813 31.842C153.788 31.0536 152.938 30.0741 152.265 28.9032C151.59 27.7326 151.158 26.4423 150.967 25.0327L150.96 24.9769C150.769 23.5673 150.843 22.2146 151.185 20.9154C151.526 19.6162 152.083 18.4435 152.858 17.3906C153.634 16.3378 154.616 15.4604 155.8 14.7559C156.985 14.0514 158.341 13.5959 159.862 13.3901C160.781 13.2658 161.631 13.2285 162.412 13.2754C163.193 13.3223 163.911 13.4375 164.566 13.615C165.222 13.7955 165.837 14.0352 166.414 14.34C166.99 14.6448 167.534 14.993 168.047 15.3811L165.717 18.9378C164.85 18.3463 163.996 17.9087 163.144 17.6232C162.292 17.3377 161.369 17.2621 160.374 17.3968C159.549 17.5084 158.804 17.7707 158.142 18.1861C157.481 18.6015 156.935 19.1238 156.504 19.7564C156.075 20.3886 155.766 21.0941 155.585 21.8752C155.404 22.6564 155.37 23.4683 155.484 24.3112L155.491 24.367C155.606 25.2127 155.855 25.9924 156.238 26.7031C156.622 27.4168 157.098 28.0222 157.673 28.5156C158.246 29.0123 158.908 29.3772 159.658 29.6108C160.407 29.8444 161.204 29.904 162.047 29.79C163.175 29.6374 164.099 29.3032 164.821 28.7838C165.543 28.2674 166.242 27.5987 166.915 26.7811L170.053 29.1975C169.619 29.8125 169.159 30.3711 168.674 30.8762C168.189 31.3814 167.64 31.8325 167.036 32.2311C166.429 32.6273 165.754 32.9609 165.006 33.2235C164.26 33.4799 163.407 33.676 162.45 33.8055Z" fill="white"/>
<path id="Vector_12" d="M172.926 11.967L187.771 9.95909L188.293 13.8179L177.729 15.2467L178.27 19.2464L187.565 17.9892L188.087 21.848L178.792 23.1052L179.352 27.2459L190.057 25.7981L190.579 29.6569L175.593 31.6839L172.926 11.967Z" fill="white"/>
</g>
<defs>
<clipPath id="clip0_7_78">
<rect width="187.596" height="37.5199" fill="white" transform="translate(0.789551 26.0754) rotate(-7.70301)"/>
</clipPath>
</defs>
</svg>
