<svg width="166" height="31" viewBox="0 0 166 31" fill="none" xmlns="http://www.w3.org/2000/svg">
<g id="Frame" clip-path="url(#clip0_7_75)">
<path id="Vector" d="M33.8818 9.15988C27.8878 9.15988 23.2043 13.71 23.2043 19.8014C23.2043 25.8927 27.7695 30.404 33.8818 30.404C39.9941 30.404 44.6386 25.8149 44.6386 19.7624C44.6386 13.749 40.0735 9.15988 33.8818 9.15988ZM33.9222 26.0141C30.5088 26.0141 28.0076 23.363 28.0076 19.8029C28.0076 16.2023 30.4684 13.5528 33.8818 13.5528C37.3356 13.5528 39.8353 16.2427 39.8353 19.8029C39.8353 23.363 37.3356 26.0141 33.9222 26.0141ZM45.9476 13.7894H48.9252V30.01H53.688V9.55529H45.9476V13.7894ZM11.2178 13.5513C13.7191 13.5513 15.7036 15.094 16.457 17.3885H21.4984C20.5848 12.4834 16.5363 9.15988 11.2583 9.15988C5.26427 9.15988 0.580811 13.71 0.580811 19.8029C0.580811 25.8957 5.14595 30.4055 11.2583 30.4055C16.418 30.4055 20.5458 27.082 21.4594 22.1364H16.457C15.7425 24.4309 13.758 26.0141 11.2568 26.0141C7.80296 26.0141 5.3826 23.363 5.3826 19.8029C5.38409 16.2023 7.76552 13.5513 11.2178 13.5513ZM136.445 17.8244L132.952 17.3106C131.285 17.074 130.094 16.5198 130.094 15.2138C130.094 13.7894 131.643 13.078 133.746 13.078C136.048 13.078 137.517 14.0665 137.835 15.6886H142.439C141.922 11.5743 138.747 9.16138 133.866 9.16138C128.824 9.16138 125.49 11.733 125.49 15.3725C125.49 18.8533 127.674 20.8723 132.079 21.5043L135.571 22.0181C137.279 22.2547 138.231 22.9287 138.231 24.1943C138.231 25.8164 136.564 26.4888 134.262 26.4888C131.444 26.4888 129.856 25.3416 129.618 23.6012H124.934C125.372 27.5972 128.507 30.4055 134.222 30.4055C139.422 30.4055 142.875 28.0315 142.875 23.9561C142.875 20.3166 140.375 18.4175 136.445 17.8244ZM51.3066 1.12895C49.5602 1.12895 48.2497 2.39455 48.2497 4.13493C48.2497 5.87532 49.5587 7.14091 51.3066 7.14091C53.053 7.14091 54.3635 5.87532 54.3635 4.13493C54.3635 2.39455 53.053 1.12895 51.3066 1.12895ZM121.204 16.5588C121.204 12.1284 118.505 9.16138 112.789 9.16138C107.391 9.16138 104.375 11.8918 103.779 16.0855H108.503C108.741 14.4634 110.011 13.1184 112.71 13.1184C115.132 13.1184 116.322 14.1863 116.322 15.4924C116.322 17.1938 114.139 17.6282 111.44 17.9052C107.788 18.3006 103.264 19.5662 103.264 24.3141C103.264 27.9941 106.003 30.3665 110.369 30.3665C113.782 30.3665 115.926 28.9422 116.998 26.6865C117.157 28.704 118.665 30.01 120.769 30.01H123.548V25.7774H121.205V16.5588H121.204ZM116.52 21.702C116.52 24.4324 114.139 26.4499 111.241 26.4499C109.454 26.4499 107.946 25.698 107.946 24.1164C107.946 22.0989 110.367 21.5448 112.59 21.3081C114.733 21.1104 115.924 20.6356 116.52 19.725V21.702ZM91.2366 9.15988C88.5766 9.15988 86.3539 10.2682 84.7663 12.1269V0.931244H80.0035V30.01H84.6869V27.3201C86.2746 29.2582 88.5377 30.4055 91.2366 30.4055C96.952 30.4055 101.279 25.8957 101.279 19.8029C101.279 13.71 96.8726 9.15988 91.2366 9.15988ZM90.5222 26.0141C87.1088 26.0141 84.6076 23.363 84.6076 19.8029C84.6076 16.2427 87.1478 13.5528 90.5611 13.5528C94.0149 13.5528 96.4353 16.2038 96.4353 19.8029C96.4353 23.363 93.9355 26.0141 90.5222 26.0141ZM68.6116 9.15988C65.5157 9.15988 63.4908 10.4255 62.3001 12.2063V9.55529H57.5762V30.0086H62.339V18.8923C62.339 15.7665 64.3235 13.5513 67.2606 13.5513C70 13.5513 71.7059 15.4894 71.7059 18.2991V30.01H76.4688V17.9442C76.4703 12.7994 73.8118 9.15988 68.6116 9.15988ZM165.579 19.1304C165.579 13.2757 161.292 9.16138 155.536 9.16138C149.424 9.16138 144.938 13.7505 144.938 19.8029C144.938 26.1728 149.742 30.4055 155.616 30.4055C160.578 30.4055 164.468 27.4774 165.459 23.3241H160.497C159.783 25.1439 158.036 26.1728 155.694 26.1728C152.637 26.1728 150.335 24.2737 149.82 20.9502H165.577V19.1304H165.579ZM150.098 17.5473C150.853 14.6986 152.996 13.3146 155.457 13.3146C158.156 13.3146 160.22 14.8573 160.696 17.5473H150.098Z" fill="white"/>
</g>
<defs>
<clipPath id="clip0_7_75">
<rect width="164.998" height="29.4742" fill="white" transform="translate(0.580811 0.931244)"/>
</clipPath>
</defs>
</svg>
