<?xml version="1.0" encoding="UTF-8"?>
<svg xmlns:xodm="http://www.corel.com/coreldraw/odm/2003" xmlns="http://www.w3.org/2000/svg" xmlns:xlink="http://www.w3.org/1999/xlink" version="1.1" id="Layer_1" x="0px" y="0px" viewBox="0 0 2500 556" style="enable-background:new 0 0 2500 556;" xml:space="preserve">
<style type="text/css">
	.st0{fill:#070C27;}
	.st1{fill-rule:evenodd;clip-rule:evenodd;fill:#070C27;}
	.st2{fill:#4A21EF;}
</style>
<g id="Layer_x0020_1">
	<g id="_1577628274720">
		<path class="st0" d="M905.6,467.8c-44,0-93.4-15-146.2-44.9v-65.2c50.2,33.5,99.5,51.1,147.1,51.1c22,0,39.6-4.4,52-12.3    c13.2-8.8,20.3-20.3,20.3-34.4c0-13.2-6.2-23.8-18.5-31.7s-30.8-15-56.4-21.1c-45.8-11.5-76.6-22-93.4-30    c-36.1-18.5-54.6-45.8-54.6-82.8c0-31.7,13.2-57.3,40.5-75.8c26.4-18.5,59.9-27.3,99.5-27.3c48.4,0,91.6,14.1,130.4,42.3v65.2    c-44-31.7-88.1-48.4-130.4-48.4c-22,0-40.5,4.4-55.5,12.3c-15,8.8-22,20.3-22,35.2c0,8.8,4.4,16.7,12.3,23.8    c8.8,6.2,17.6,11.5,27.3,15s25.5,7,44.9,12.3c21.1,5.3,37.9,10.6,52,15c14.1,5.3,28.2,11.5,42.3,20.3    c14.1,8.8,24.7,19.4,31.7,31.7c7,13.2,10.6,28.2,10.6,45.8c0,33.5-12.3,59-37.9,77.5c-25.5,18.5-57.3,27.3-96,27.3V467.8z"></path>
		<path class="st0" d="M1166.3,467.8c-12.3,0-23.8-1.8-35.2-4.4c-11.5-2.6-22-7-32.6-13.2s-19.4-15-25.5-26.4    c-7-11.5-9.7-25.5-9.7-41.4c0-28.2,9.7-49.3,29.1-64.3c20.3-15,48.4-22.9,85.4-22.9h84.6v-16.7c0-15-6.2-26.4-18.5-34.4    s-29.1-12.3-48.4-12.3c-37.9,0-59.9,12.3-66.1,37.9l-57.3,0.9c0.9-27.3,12.3-49.3,36.1-65.2c23.8-15.9,52.9-23.8,87.2-23.8    c34.4,0,64.3,8.8,88.1,25.5c24.7,16.7,37,38.8,37,65.2v192h-57.3V422c-7.9,11.5-20.3,22-37,31.7c-15.9,9.7-35.2,15-59,15    L1166.3,467.8z M1170.7,418.5c22.9,0,44-7.9,62.5-23.8c18.5-15.9,28.2-34.4,28.2-55.5h-74c-22.9,0-39.6,4.4-51.1,13.2    c-10.6,8.8-15.9,19.4-14.1,31.7c0.9,11.5,6.2,20.3,15.9,26.4C1147.8,415.9,1158.4,418.5,1170.7,418.5z"></path>
		<path class="st0" d="M1364.5,464.3l-0.9-225.5V178c0-33.5,13.2-58.1,40.5-74.9s63.4-19.4,107.5-8.8l-0.9,45.8    c-29.1-7.9-51.1-7.9-66.1,0c-15,7-22,20.3-22,37.9v8.8h85.4v52h-85.4l0.9,225.5h-59.9H1364.5z"></path>
		<path class="st0" d="M1667.5,467.8c-39.6,0-73.1-14.1-101.3-42.3c-27.3-28.2-41.4-61.7-41.4-101.3s14.1-73.1,42.3-101.3    s61.7-42.3,100.4-42.3c34.4,0,65.2,11.5,90.7,34.4c26.4,22,42.3,50.2,48.4,84.6c3.5,16.7,3.5,31.7,0.9,46.7h-222.9    c3.5,20.3,13.2,37,28.2,49.3c15,11.5,33.5,17.6,54.6,17.6c31.7,0,58.1-11.5,76.6-34.4h53.7c0,0-6.2,37-53.7,67.8    c-24.7,13.2-50.2,20.3-76.6,20.3V467.8z M1584.7,300.5h163.8c-3.5-18.5-12.3-34.4-27.3-46.7c-15-12.3-32.6-18.5-53.7-18.5    c-21.1,0-39.6,6.2-54.6,19.4c-15,12.3-24.7,28.2-27.3,45.8H1584.7z"></path>
		<path class="st0" d="M2244.5,467.8c-12.3,0-23.8-1.8-35.2-4.4c-11.5-2.6-22-7-32.6-13.2s-19.4-15-25.5-26.4    c-7-11.5-9.7-25.5-9.7-41.4c0-28.2,9.7-49.3,29.1-64.3c20.3-15,48.4-22.9,85.4-22.9h84.6v-16.7c0-15-6.2-26.4-18.5-34.4    c-12.3-7.9-29.1-12.3-48.4-12.3c-37.9,0-59.9,12.3-66.1,37.9l-57.3,0.9c0.9-27.3,12.3-49.3,36.1-65.2s52.9-23.8,87.2-23.8    s64.3,8.8,88.1,25.5c24.7,16.7,37,38.8,37,65.2v192h-57.3V422c-7.9,11.5-20.3,22-37,31.7c-15.9,9.7-35.2,15-59,15L2244.5,467.8z     M2248.9,418.5c22.9,0,44-7.9,62.5-23.8c18.5-15.9,28.2-34.4,28.2-55.5h-74c-22.9,0-39.6,4.4-51.1,13.2    c-10.6,8.8-15.9,19.4-14.1,31.7c0.9,11.5,6.2,20.3,15.9,26.4C2226,415.9,2236.6,418.5,2248.9,418.5z"></path>
		<polygon class="st0" points="2440.1,464.3 2440.1,102.3 2500,102.3 2500,464.3   "></polygon>
		<path class="st1" d="M1842.8,102.3h158.6c35.2,0,64.3,12.3,88.1,36.1c23.8,23.8,35.2,52.9,35.2,86.3c0,34.4-11.5,62.5-35.2,86.3    c-22.9,22.9-52,34.4-88.1,35.2l-96.9,0.9v117.2H1842V103.1L1842.8,102.3z M1997.9,289.9l-92.5,0.9V158.6l92.5-0.9    c20.3,0,37,6.2,48.4,18.5c12.3,12.3,18.5,27.3,18.5,45.8s-6.2,35.2-18.5,48.4C2034,283.7,2018.1,289.9,1997.9,289.9z"></path>
		<path class="st2" d="M244,0.1c-16.7,0-33.5,7-44.9,18.5L11.5,206.2c-7,7-10.6,16.7-10.6,25.5c0,9.7,3.5,18.5,10.6,25.5    l123.3,123.3V163c0-15.9,13.2-29.1,29.1-29.1c68.7,0,236.1,0,259,0L556.7,0.1H244.9H244z"></path>
		<path class="st2" d="M133.9,422h259c15.9,0,29.1-13.2,29.1-29.1V175.4l123.3,123.3c7,7,10.6,16.7,10.6,25.5    c0,9.7-3.5,18.5-10.6,25.5L357.6,537.4c-12.3,12.3-28.2,18.5-44.9,18.5H0.9L134.8,422H133.9z"></path>
	</g>
</g>
</svg>
