<svg width="114" height="29" viewBox="0 0 114 29" fill="none" xmlns="http://www.w3.org/2000/svg">
<g id="wallet-02.svg" clip-path="url(#clip0_1_875)">
<path id="Vector" d="M12.2119 18.0093C13.3173 18.0272 15.7222 18.0661 15.7392 16.5233C15.756 14.9268 13.3653 14.9759 12.242 14.999C12.1264 15.0013 12.0242 15.0034 11.9395 15.0034V18.0062C12.0169 18.0062 12.1088 18.0076 12.2119 18.0093Z" fill="#009FE8"/>
<path id="Vector_2" d="M12.122 13.6368C13.0128 13.6669 15.1102 13.7377 15.1275 12.2972C15.1443 10.8361 13.1524 10.8814 12.2128 10.9028C12.1155 10.905 12.0293 10.907 11.958 10.907V13.6318C12.0064 13.6329 12.0613 13.6348 12.122 13.6368Z" fill="#009FE8"/>
<path id="Vector_3" fill-rule="evenodd" clip-rule="evenodd" d="M24.7475 9.7579C24.7475 24.5492 12.9033 28.5714 12.9033 28.5714C12.9033 28.5714 1.05908 24.5492 1.05908 9.7579V4.43823C1.05908 3.86363 1.50393 3.38171 2.07854 3.34464C4.22865 3.25196 9.32595 2.8071 12.9033 0.897949C16.4806 2.8071 21.5779 3.25196 23.728 3.34464C24.3026 3.38171 24.7475 3.86363 24.7475 4.43823V9.7579ZM14.4046 9.36867C16.1655 9.53546 17.5371 10.0915 17.6854 11.7042C17.7966 12.8904 17.2962 13.5947 16.4991 13.9655C17.7966 14.2805 18.5937 15.0776 18.4268 16.8014C18.2044 18.9515 16.6104 19.5261 14.312 19.6373V21.8987H12.9403V19.6744C12.5882 19.6744 12.2175 19.6744 11.8468 19.6559V21.8987H10.4936V19.6373C10.1786 19.6188 8.00986 19.6373 8.00986 19.6373L8.02846 17.9877H9.5669V10.7774H7.82455V9.35015C7.82455 9.35015 10.2713 9.33155 10.5678 9.33155L10.5493 7.08879H11.9209V9.2945H13.033V7.10733H14.4046V9.36867Z" fill="#009FE8"/>
<path id="Vector_4" d="M48.4528 19.5725C48.4528 20.7587 48.2118 21.7411 47.7485 22.5381C47.2851 23.3351 46.6548 23.9839 45.8949 24.4658C45.1164 24.9477 44.2453 25.2999 43.2629 25.5223C42.2805 25.7262 41.2611 25.8374 40.2416 25.8374H31.6597V4.28064H40.2416C41.0757 4.28064 41.9283 4.37331 42.7995 4.54013C43.6706 4.70696 44.4677 5.00352 45.172 5.42984C45.8764 5.85616 46.451 6.41222 46.9144 7.11658C47.3592 7.82089 47.5816 8.72916 47.5816 9.82273C47.5816 11.0275 47.2666 12.01 46.5993 12.7884C45.9505 13.5669 45.0979 14.1415 44.0413 14.4751V14.5308C44.653 14.642 45.2276 14.8273 45.7652 15.1054C46.3027 15.3834 46.7661 15.7356 47.1554 16.1619C47.5446 16.5882 47.8597 17.0887 48.1007 17.6632C48.323 18.2193 48.4528 18.8495 48.4528 19.5725ZM42.54 10.5271C42.54 9.80421 42.2619 9.26672 41.7059 8.93306C41.1498 8.59941 40.3157 8.43255 39.2222 8.43255H36.6642V12.8811H39.4631C40.4455 12.8811 41.1869 12.6772 41.7244 12.288C42.2805 11.8802 42.54 11.2871 42.54 10.5271ZM43.2444 19.0719C43.2444 18.1823 42.9107 17.5521 42.2434 17.2184C41.5761 16.8663 40.6864 16.6994 39.5557 16.6994H36.6642V21.6299H39.5929C40.0006 21.6299 40.427 21.5928 40.8532 21.5187C41.2796 21.4445 41.6873 21.3147 42.0395 21.148C42.3917 20.9626 42.6883 20.7031 42.9107 20.3694C43.1332 20.0358 43.2444 19.6095 43.2444 19.0719Z" fill="white"/>
<path id="Vector_5" d="M55.3666 5.83759C55.3666 6.22684 55.2925 6.57902 55.1442 6.91265C54.9959 7.24633 54.792 7.54286 54.5325 7.78382C54.2731 8.02478 53.9765 8.21016 53.6243 8.35843C53.2721 8.5067 52.9014 8.56234 52.5122 8.56234C51.6966 8.56234 51.0293 8.30279 50.4733 7.74677C49.9172 7.20921 49.6577 6.56049 49.6577 5.81906C49.6577 5.44835 49.7318 5.09618 49.8801 4.76254C50.0284 4.4289 50.2323 4.13233 50.4918 3.89137C50.7513 3.6504 51.0664 3.44652 51.4 3.29823C51.7522 3.14995 52.1229 3.07581 52.5307 3.07581C52.9199 3.07581 53.2906 3.14995 53.6428 3.27969C53.995 3.42798 54.3101 3.61334 54.5511 3.8543C54.8105 4.09526 55.0145 4.39183 55.1627 4.72546C55.2925 5.07764 55.3666 5.44835 55.3666 5.83759ZM50.0099 10.6753H55.0145V25.8374H50.0099V10.6753Z" fill="white"/>
<path id="Vector_6" d="M64.0598 14.3826V20.1842C64.0598 20.907 64.1895 21.426 64.4676 21.7967C64.7456 22.1489 65.2275 22.3343 65.9504 22.3343C66.1914 22.3343 66.4508 22.3158 66.7289 22.2786C67.0069 22.2416 67.2294 22.186 67.4147 22.0933L67.4703 25.7448C67.1181 25.8746 66.6918 25.9672 66.1543 26.0599C65.6167 26.1526 65.0978 26.1896 64.5602 26.1896C63.5408 26.1896 62.6882 26.0599 62.0024 25.8004C61.3165 25.5409 60.7604 25.1887 60.3342 24.7068C59.9264 24.2249 59.6113 23.6688 59.4259 23.0015C59.2406 22.3343 59.1479 21.6114 59.1479 20.7958V14.3826H56.7568V10.6754H59.1664V6.69031H64.0783V10.6754H67.6371V14.3826H64.0598Z" fill="white"/>
<path id="Vector_7" d="M85.709 25.8745C84.3003 26.2267 82.7623 26.3935 81.0937 26.3935C79.3698 26.3935 77.7759 26.1155 76.3305 25.5779C74.8845 25.0219 73.6244 24.2619 72.5862 23.261C71.548 22.2601 70.7144 21.0738 70.1393 19.6836C69.5462 18.2935 69.2498 16.7365 69.2498 15.0312C69.2498 13.3075 69.5462 11.7505 70.1579 10.3418C70.751 8.93308 71.5853 7.74681 72.6415 6.76441C73.6984 5.78203 74.9405 5.02208 76.3485 4.50309C77.7759 3.98409 79.2959 3.70605 80.9458 3.70605C82.651 3.70605 84.2263 3.96555 85.691 4.48455C87.155 5.00354 88.3412 5.68935 89.2494 6.57906L85.9689 10.3232C85.4685 9.73006 84.7828 9.24814 83.9671 8.87744C83.1328 8.50674 82.1872 8.32142 81.1311 8.32142C80.2228 8.32142 79.3698 8.48822 78.6102 8.82187C77.8319 9.15552 77.1641 9.61891 76.6084 10.2306C76.034 10.8237 75.5889 11.5466 75.2923 12.3622C74.9771 13.1777 74.8105 14.0859 74.8105 15.0498C74.8105 16.0507 74.9585 16.9589 75.237 17.7931C75.5149 18.6272 75.9414 19.35 76.4971 19.9432C77.0529 20.5363 77.7392 21.0182 78.5729 21.3519C79.3885 21.6855 80.3341 21.8523 81.3903 21.8523C82.002 21.8523 82.5771 21.8152 83.1328 21.7226C83.6706 21.6299 84.1897 21.4816 84.6528 21.2777V17.3482H80.538V13.1036H89.4347V24.5214C88.3412 25.0775 87.1177 25.5224 85.709 25.8745Z" fill="white"/>
<path id="Vector_8" d="M108.174 18.2008C108.174 19.4427 107.952 20.5548 107.507 21.5743C107.062 22.5752 106.45 23.4278 105.672 24.1321C104.894 24.8365 104.004 25.374 102.985 25.7633C101.965 26.1525 100.89 26.3379 99.722 26.3379C98.5912 26.3379 97.4977 26.1525 96.4781 25.7633C95.4593 25.374 94.551 24.8365 93.7907 24.1321C93.031 23.4278 92.4193 22.5752 91.9742 21.5743C91.5297 20.5733 91.3071 19.4427 91.3071 18.2008C91.3071 16.9589 91.5297 15.8468 91.9742 14.8459C92.4193 13.845 93.031 13.0109 93.7907 12.3251C94.551 11.6392 95.4406 11.1017 96.4781 10.7495C97.4977 10.3788 98.5912 10.1935 99.722 10.1935C100.872 10.1935 101.965 10.3788 102.985 10.7495C104.004 11.1203 104.894 11.6392 105.672 12.3251C106.45 13.0109 107.043 13.8635 107.507 14.8459C107.952 15.8468 108.174 16.9589 108.174 18.2008ZM103.374 18.2008C103.374 17.7189 103.3 17.2369 103.133 16.7735C102.966 16.3102 102.743 15.9024 102.428 15.5317C102.132 15.1795 101.742 14.8829 101.298 14.6605C100.853 14.4381 100.334 14.3269 99.7407 14.3269C99.1476 14.3269 98.6285 14.4381 98.1841 14.6605C97.7389 14.8829 97.3684 15.1795 97.0719 15.5317C96.7754 15.8839 96.5528 16.2916 96.4042 16.7735C96.2563 17.2369 96.1816 17.7189 96.1816 18.2008C96.1816 18.6827 96.2563 19.1647 96.4042 19.628C96.5528 20.0914 96.7754 20.5177 97.0899 20.8884C97.3864 21.2591 97.7763 21.5743 98.2207 21.7967C98.6659 22.0191 99.185 22.1304 99.778 22.1304C100.371 22.1304 100.89 22.0191 101.335 21.7967C101.78 21.5743 102.15 21.2777 102.465 20.8884C102.762 20.5177 103.003 20.0914 103.151 19.628C103.3 19.1647 103.374 18.6827 103.374 18.2008Z" fill="white"/>
<path id="Vector_9" d="M110.714 22.8718C111.659 22.8718 112.456 23.6132 112.456 24.5957C112.456 25.5965 111.641 26.3379 110.714 26.3379C109.768 26.3379 108.953 25.5965 108.953 24.5957C108.953 23.5947 109.75 22.8718 110.714 22.8718ZM110.714 23.1499C109.917 23.1499 109.286 23.7801 109.286 24.5957C109.286 25.4483 109.917 26.0414 110.714 26.0414C111.511 26.0414 112.123 25.4298 112.123 24.5957C112.123 23.7616 111.492 23.1499 110.714 23.1499ZM110.343 25.5965H110.028V23.5947H110.788C111.27 23.5947 111.492 23.7801 111.492 24.1693C111.492 24.5215 111.27 24.6883 110.973 24.7254L111.548 25.5965H111.214L110.677 24.7254H110.325V25.5965H110.343ZM110.343 24.4844H110.714C111.084 24.4844 111.214 24.3732 111.214 24.1508C111.214 23.9654 111.122 23.8542 110.769 23.8542H110.361V24.4844H110.343Z" fill="white"/>
</g>
<defs>
<clipPath id="clip0_1_875">
<rect width="112.669" height="28.34" fill="white" transform="translate(0.4104 0.26001)"/>
</clipPath>
</defs>
</svg>
