<svg width="205" height="39" viewBox="0 0 205 39" fill="none" xmlns="http://www.w3.org/2000/svg">
<g id="Frame" clip-path="url(#clip0_7_81)">
<path id="Vector" d="M180.688 19.6167C179.634 18.9226 178.462 18.4199 177.36 17.7976C176.642 17.3907 175.876 17.0436 175.266 16.529C174.213 15.6553 174.428 13.9558 175.529 13.2138C177.121 12.1606 179.742 12.747 180.017 14.9013C180.017 14.9492 180.065 14.9731 180.113 14.9731H182.507C182.567 14.9731 182.614 14.9252 182.602 14.8654C182.483 13.3814 181.896 12.1367 180.843 11.3468C179.826 10.5928 178.677 10.1859 177.456 10.1859C171.125 10.1859 170.551 16.8641 173.962 18.9824C174.345 19.2337 177.696 20.9093 178.88 21.6393C180.065 22.3694 180.436 23.6978 179.922 24.751C179.455 25.7085 178.246 26.3787 177.025 26.3069C175.709 26.235 174.68 25.517 174.321 24.4039C174.261 24.2005 174.225 23.8175 174.225 23.6499C174.225 23.6021 174.177 23.5542 174.129 23.5542H171.532C171.484 23.5542 171.436 23.6021 171.436 23.6499C171.436 25.5289 171.903 26.5702 173.184 27.5156C174.38 28.4132 175.685 28.7842 177.037 28.7842C180.58 28.7842 182.411 26.7856 182.794 24.7031C183.117 22.6566 182.507 20.8375 180.688 19.6167Z" fill="white"/>
<path id="Vector_2" d="M67.9486 10.533H66.7997H65.5431C65.4952 10.533 65.4593 10.5689 65.4473 10.5928L63.317 17.6061C63.2811 17.7019 63.1614 17.7019 63.1255 17.6061L60.9952 10.5928C60.9832 10.545 60.9473 10.533 60.8995 10.533H59.6428H58.4939H56.938C56.8902 10.533 56.8423 10.5809 56.8423 10.6287V28.521C56.8423 28.5689 56.8902 28.6167 56.938 28.6167H59.5351C59.583 28.6167 59.6308 28.5689 59.6308 28.521V14.9253C59.6308 14.8176 59.7864 14.8056 59.8223 14.8894L61.9646 21.9505L62.1202 22.4412C62.1322 22.4891 62.1681 22.501 62.2159 22.501H64.2026C64.2505 22.501 64.2744 22.4651 64.2984 22.4412L64.454 21.9505L66.5962 14.8894C66.6322 14.7816 66.7877 14.8176 66.7877 14.9253V28.521C66.7877 28.5689 66.8356 28.6167 66.8835 28.6167H69.4805C69.5284 28.6167 69.5763 28.5689 69.5763 28.521V10.6287C69.5763 10.5809 69.5284 10.533 69.4805 10.533H67.9486Z" fill="white"/>
<path id="Vector_3" d="M140.93 10.533C140.882 10.533 140.846 10.5689 140.834 10.5928L138.704 17.6061C138.668 17.7019 138.548 17.7019 138.512 17.6061L136.382 10.5928C136.37 10.545 136.334 10.533 136.286 10.533H132.337C132.289 10.533 132.241 10.5809 132.241 10.6287V28.521C132.241 28.5689 132.289 28.6167 132.337 28.6167H134.934C134.982 28.6167 135.03 28.5689 135.03 28.521V14.9253C135.03 14.8176 135.185 14.8056 135.221 14.8894L137.363 21.9505L137.519 22.4412C137.531 22.4891 137.567 22.501 137.615 22.501H139.601C139.649 22.501 139.685 22.4651 139.697 22.4412L139.853 21.9505L141.995 14.8894C142.031 14.7816 142.186 14.8176 142.186 14.9253V28.521C142.186 28.5689 142.234 28.6167 142.282 28.6167H144.879C144.927 28.6167 144.975 28.5689 144.975 28.521V10.6287C144.975 10.5809 144.927 10.533 144.879 10.533H140.93Z" fill="white"/>
<path id="Vector_4" d="M107.443 10.533H102.608H100.011H95.1758C95.128 10.533 95.0801 10.5809 95.0801 10.6287V12.8668C95.0801 12.9146 95.128 12.9625 95.1758 12.9625H99.9152V28.521C99.9152 28.5689 99.963 28.6167 100.011 28.6167H102.608C102.656 28.6167 102.704 28.5689 102.704 28.521V12.9505H107.443C107.491 12.9505 107.539 12.9027 107.539 12.8548V10.6287C107.539 10.5809 107.503 10.533 107.443 10.533Z" fill="white"/>
<path id="Vector_5" d="M122.762 28.6167H125.12C125.18 28.6167 125.228 28.5568 125.216 28.497L120.333 10.533C120.321 10.4851 120.285 10.4731 120.237 10.4731H119.339H117.748H116.85C116.802 10.4731 116.766 10.509 116.754 10.533L111.871 28.497C111.859 28.5568 111.907 28.6167 111.967 28.6167H114.325C114.373 28.6167 114.396 28.5808 114.42 28.5568L115.833 23.3268C115.845 23.2789 115.881 23.267 115.928 23.267H121.158C121.206 23.267 121.242 23.3029 121.254 23.3268L122.666 28.5568C122.678 28.5808 122.726 28.6167 122.762 28.6167ZM116.551 20.7058L118.442 13.7165C118.478 13.6207 118.597 13.6207 118.633 13.7165L120.524 20.7058C120.536 20.7656 120.488 20.8255 120.428 20.8255H116.635C116.587 20.8375 116.539 20.7656 116.551 20.7058Z" fill="white"/>
<path id="Vector_6" d="M163.059 28.6167H165.416C165.476 28.6167 165.524 28.5568 165.512 28.497L160.629 10.533C160.617 10.4851 160.581 10.4731 160.534 10.4731H159.636H158.056H157.159C157.111 10.4731 157.075 10.509 157.063 10.533L152.18 28.497C152.168 28.5568 152.216 28.6167 152.276 28.6167H154.633C154.681 28.6167 154.717 28.5808 154.729 28.5568L156.141 23.3268C156.153 23.2789 156.189 23.267 156.237 23.267H161.467C161.515 23.267 161.551 23.3029 161.563 23.3268L162.975 28.5568C162.975 28.5808 163.011 28.6167 163.059 28.6167ZM156.847 20.7058L158.75 13.7165C158.786 13.6207 158.906 13.6207 158.942 13.7165L160.845 20.7058C160.857 20.7656 160.809 20.8255 160.749 20.8255H156.955C156.883 20.8375 156.835 20.7656 156.847 20.7058Z" fill="white"/>
<path id="Vector_7" d="M80.1081 25.9599V20.4067C80.1081 20.3588 80.156 20.3109 80.2039 20.3109H87.1214C87.1693 20.3109 87.2172 20.2631 87.2172 20.2152V17.9891C87.2172 17.9413 87.1693 17.8934 87.1214 17.8934H80.2039C80.156 17.8934 80.1081 17.8455 80.1081 17.7977V13.0583C80.1081 13.0104 80.156 12.9626 80.2039 12.9626H88.0669C88.1148 12.9626 88.1626 12.9147 88.1626 12.8668V10.6408C88.1626 10.5929 88.1148 10.545 88.0669 10.545H80.1081H77.4153C77.3674 10.545 77.3196 10.5929 77.3196 10.6408V12.9626V17.9054V20.3229V26.0556V28.5091C77.3196 28.5569 77.3674 28.6048 77.4153 28.6048H80.1081H88.39C88.4379 28.6048 88.4858 28.5569 88.4858 28.5091V26.1514C88.4858 26.1035 88.4379 26.0556 88.39 26.0556H80.1799C80.144 26.0556 80.1081 26.0317 80.1081 25.9599Z" fill="white"/>
<path id="Vector_8" d="M204.42 28.4612L195.432 19.1979C195.396 19.162 195.396 19.1022 195.432 19.0782L203.523 10.7006C203.583 10.6408 203.535 10.545 203.463 10.545H200.148C200.112 10.545 200.1 10.557 200.088 10.5809L193.23 17.678C193.17 17.7378 193.075 17.6899 193.075 17.6181V10.6408C193.075 10.5929 193.027 10.545 192.979 10.545H190.382C190.334 10.545 190.286 10.5929 190.286 10.6408V28.533C190.286 28.5809 190.334 28.6287 190.382 28.6287H192.979C193.027 28.6287 193.075 28.5809 193.075 28.533V20.658C193.075 20.5862 193.182 20.5383 193.23 20.5982L200.998 28.6048C201.01 28.6168 201.045 28.6407 201.057 28.6407H204.373C204.432 28.6168 204.48 28.5091 204.42 28.4612Z" fill="white"/>
<path id="Vector_9" d="M39.1057 0.910645L23.3916 12.5316L26.3118 5.67393L39.1057 0.910645Z" fill="#E17726" stroke="#E17726" stroke-width="0.299201" stroke-linecap="round" stroke-linejoin="round"/>
<path id="Vector_10" d="M2.85449 0.910645L18.4369 12.6513L15.6483 5.6859L2.85449 0.910645Z" fill="#E27625" stroke="#E27625" stroke-width="0.299201" stroke-linecap="round" stroke-linejoin="round"/>
<path id="Vector_11" d="M33.4447 27.8747L29.2678 34.2656L38.2199 36.7311L40.7811 28.0183L33.4447 27.8747Z" fill="#E27625" stroke="#E27625" stroke-width="0.299201" stroke-linecap="round" stroke-linejoin="round"/>
<path id="Vector_12" d="M1.19092 28.0183L3.74011 36.7311L12.6803 34.2656L8.51537 27.8747L1.19092 28.0183Z" fill="#E27625" stroke="#E27625" stroke-width="0.299201" stroke-linecap="round" stroke-linejoin="round"/>
<path id="Vector_13" d="M12.2013 17.0795L9.71191 20.8375L18.5683 21.2444L18.2691 11.7059L12.2013 17.0795Z" fill="#E27625" stroke="#E27625" stroke-width="0.299201" stroke-linecap="round" stroke-linejoin="round"/>
<path id="Vector_14" d="M29.7706 17.0795L23.5951 11.5862L23.3916 21.2324L32.248 20.8255L29.7706 17.0795Z" fill="#E27625" stroke="#E27625" stroke-width="0.299201" stroke-linecap="round" stroke-linejoin="round"/>
<path id="Vector_15" d="M12.6802 34.2656L18.0419 31.6805L13.4222 28.0781L12.6802 34.2656Z" fill="#E27625" stroke="#E27625" stroke-width="0.299201" stroke-linecap="round" stroke-linejoin="round"/>
<path id="Vector_16" d="M23.9182 31.6685L29.2679 34.2656L28.5379 28.0781L23.9182 31.6685Z" fill="#E27625" stroke="#E27625" stroke-width="0.299201" stroke-linecap="round" stroke-linejoin="round"/>
<path id="Vector_17" d="M29.2679 34.2656L23.9182 31.6805L24.3491 35.1512L24.3012 36.6233L29.2679 34.2656Z" fill="#D5BFB2" stroke="#D5BFB2" stroke-width="0.299201" stroke-linecap="round" stroke-linejoin="round"/>
<path id="Vector_18" d="M12.6802 34.2656L17.6589 36.6233L17.623 35.1512L18.0419 31.6805L12.6802 34.2656Z" fill="#D5BFB2" stroke="#D5BFB2" stroke-width="0.299201" stroke-linecap="round" stroke-linejoin="round"/>
<path id="Vector_19" d="M17.7426 25.7802L13.2905 24.4757L16.4262 23.0276L17.7426 25.7802Z" fill="#233447" stroke="#233447" stroke-width="0.299201" stroke-linecap="round" stroke-linejoin="round"/>
<path id="Vector_20" d="M24.2173 25.7803L25.5218 23.0396L28.6814 24.4877L24.2173 25.7803Z" fill="#233447" stroke="#233447" stroke-width="0.299201" stroke-linecap="round" stroke-linejoin="round"/>
<path id="Vector_21" d="M12.6803 34.2656L13.4582 27.8747L8.51538 28.0183L12.6803 34.2656Z" fill="#CC6228" stroke="#CC6228" stroke-width="0.299201" stroke-linecap="round" stroke-linejoin="round"/>
<path id="Vector_22" d="M28.502 27.8747L29.2679 34.2656L33.4448 28.0183L28.502 27.8747Z" fill="#CC6228" stroke="#CC6228" stroke-width="0.299201" stroke-linecap="round" stroke-linejoin="round"/>
<path id="Vector_23" d="M32.248 20.8375L23.3916 21.2444L24.2174 25.7923L25.5219 23.0516L28.6815 24.4997L32.248 20.8375Z" fill="#CC6228" stroke="#CC6228" stroke-width="0.299201" stroke-linecap="round" stroke-linejoin="round"/>
<path id="Vector_24" d="M13.3023 24.4758L16.438 23.0276L17.7425 25.7683L18.5683 21.2205L9.71191 20.8135L13.3023 24.4758Z" fill="#CC6228" stroke="#CC6228" stroke-width="0.299201" stroke-linecap="round" stroke-linejoin="round"/>
<path id="Vector_25" d="M9.71191 20.8375L13.422 28.0782L13.3023 24.4758L9.71191 20.8375Z" fill="#E27525" stroke="#E27525" stroke-width="0.299201" stroke-linecap="round" stroke-linejoin="round"/>
<path id="Vector_26" d="M28.6815 24.4758L28.5378 28.0782L32.2479 20.8375L28.6815 24.4758Z" fill="#E27525" stroke="#E27525" stroke-width="0.299201" stroke-linecap="round" stroke-linejoin="round"/>
<path id="Vector_27" d="M18.5685 21.2324L17.7427 25.7803L18.7839 31.1419L19.0113 24.0688L18.5685 21.2324Z" fill="#E27525" stroke="#E27525" stroke-width="0.299201" stroke-linecap="round" stroke-linejoin="round"/>
<path id="Vector_28" d="M23.3915 21.2324L22.9607 24.0569L23.1761 31.1419L24.2173 25.7803L23.3915 21.2324Z" fill="#E27525" stroke="#E27525" stroke-width="0.299201" stroke-linecap="round" stroke-linejoin="round"/>
<path id="Vector_29" d="M24.2175 25.7803L23.1763 31.142L23.9183 31.6686L28.538 28.0662L28.6816 24.4638L24.2175 25.7803Z" fill="#F5841F" stroke="#F5841F" stroke-width="0.299201" stroke-linecap="round" stroke-linejoin="round"/>
<path id="Vector_30" d="M13.3025 24.4757L13.4222 28.0781L18.0418 31.6804L18.7839 31.1539L17.7426 25.7922L13.3025 24.4757Z" fill="#F5841F" stroke="#F5841F" stroke-width="0.299201" stroke-linecap="round" stroke-linejoin="round"/>
<path id="Vector_31" d="M24.3131 36.6233L24.361 35.1513L23.9541 34.8042H18.0179L17.635 35.1513L17.6709 36.6233L12.6802 34.2656L14.4275 35.6898L17.9581 38.1193H24.002L27.5445 35.6898L29.2679 34.2656L24.3131 36.6233Z" fill="#C0AC9D" stroke="#C0AC9D" stroke-width="0.299201" stroke-linecap="round" stroke-linejoin="round"/>
<path id="Vector_32" d="M23.9182 31.6686L23.1762 31.142H18.7839L18.0419 31.6686L17.623 35.1393L18.006 34.7922H23.9422L24.3491 35.1393L23.9182 31.6686Z" fill="white" stroke="white" stroke-width="0.299201" stroke-linecap="round" stroke-linejoin="round"/>
<path id="Vector_33" d="M39.7759 13.2976L41.0924 6.8827L39.1057 0.910645L23.9182 12.1486L29.7586 17.0795L38.0166 19.4851L39.8357 17.3548L39.0458 16.7803L40.3025 15.6314L39.3331 14.8893L40.5897 13.9319L39.7759 13.2976Z" fill="#763E1A" stroke="#763E1A" stroke-width="0.299201" stroke-linecap="round" stroke-linejoin="round"/>
<path id="Vector_34" d="M0.867676 6.87074L2.2081 13.2856L1.35837 13.9199L2.63895 14.8774L1.66954 15.6194L2.92618 16.7683L2.13629 17.3428L3.95543 19.4731L12.2134 17.0675L18.0538 12.1367L2.85437 0.910645L0.867676 6.87074Z" fill="#763E1A" stroke="#763E1A" stroke-width="0.299201" stroke-linecap="round" stroke-linejoin="round"/>
<path id="Vector_35" d="M38.0165 19.4851L29.7586 17.0795L32.2479 20.8375L28.5378 28.0782L33.4567 28.0183H40.7931L38.0165 19.4851Z" fill="#F5841F" stroke="#F5841F" stroke-width="0.299201" stroke-linecap="round" stroke-linejoin="round"/>
<path id="Vector_36" d="M12.2015 17.0795L3.94357 19.4851L1.19092 28.0183H8.51537L13.4342 28.0782L9.72414 20.8375L12.2015 17.0795Z" fill="#F5841F" stroke="#F5841F" stroke-width="0.299201" stroke-linecap="round" stroke-linejoin="round"/>
<path id="Vector_37" d="M23.3915 21.2324L23.9181 12.1486L26.3117 5.68588H15.6482L18.0418 12.1486L18.5684 21.2324L18.7719 24.0808L18.7838 31.1419H23.1641L23.1761 24.0808L23.3915 21.2324Z" fill="#F5841F" stroke="#F5841F" stroke-width="0.299201" stroke-linecap="round" stroke-linejoin="round"/>
</g>
<defs>
<clipPath id="clip0_7_81">
<rect width="203.732" height="37.5199" fill="white" transform="translate(0.712158 0.755035)"/>
</clipPath>
</defs>
</svg>
